<svg fill="none" height="400" viewBox="0 0 1386 400" width="1386" xmlns="http://www.w3.org/2000/svg"><g fill="#ffedec"><path clip-rule="evenodd" d="m166.677 292c-13.407 0-25.269-8.655-29.322-21.395l-20.839-65.494h-12.812c-13.4061 0-25.2685-8.655-29.3218-21.395l-12.3822-38.916h46.444l-24.4963-36.8h232.1043l-24.496 36.8h46.444l-12.382 38.916c-4.053 12.74-15.916 21.395-29.322 21.395h-12.812l-20.839 65.494c-4.053 12.74-15.915 21.395-29.322 21.395zm-15.744-104.778c0 9.88 7.399 17.889 16.527 17.889 9.127 0 16.526-8.009 16.526-17.889s-7.399-17.889-16.526-17.889c-9.128 0-16.527 8.009-16.527 17.889zm98.134 0c0 9.88-7.399 17.889-16.526 17.889-9.128 0-16.527-8.009-16.527-17.889s7.399-17.889 16.527-17.889c9.127 0 16.526 8.009 16.526 17.889z" fill-rule="evenodd"/><path d="m1251.11 271.253c-12.99 0-25-3.215-36.02-9.645-10.89-6.561-19.62-15.353-26.18-26.376-6.43-11.023-9.65-23.03-9.65-36.022 0-12.991 3.22-24.998 9.65-36.021 6.56-11.023 15.29-19.749 26.18-26.179 11.02-6.561 23.03-9.842 36.02-9.842s25 3.281 36.02 9.842c11.02 6.43 19.75 15.156 26.18 26.179s9.64 23.03 9.64 36.021c0 12.992-3.21 24.999-9.64 36.022s-15.16 19.815-26.18 26.376c-11.02 6.43-23.03 9.645-36.02 9.645zm0-27.164c8.27 0 15.75-2.034 22.44-6.102 6.82-4.068 12.2-9.513 16.14-16.337 4.07-6.824 6.1-14.304 6.1-22.44s-2.03-15.615-6.1-22.439c-3.94-6.824-9.32-12.27-16.14-16.337-6.69-4.068-14.17-6.102-22.44-6.102-8.14 0-15.62 2.034-22.44 6.102-6.69 4.067-12.07 9.513-16.14 16.337s-6.1 14.303-6.1 22.439 2.03 15.616 6.1 22.44 9.45 12.269 16.14 16.337c6.82 4.068 14.3 6.102 22.44 6.102z"/><path d="m1063.13 234.444v-25.195h74.8v25.195zm80.9 35.628-27.55-71.452c-1.19-3.149-2.37-6.168-3.55-9.055-1.18-3.018-2.29-5.97-3.34-8.857-.92-2.756-1.91-5.512-2.96-8.267-.92-2.756-1.83-5.512-2.75-8.268h-.2c-.52 1.706-1.11 3.412-1.77 5.118-.53 1.706-1.05 3.412-1.58 5.118-1.31 3.937-2.75 7.873-4.33 11.81-1.44 3.937-3.01 8.071-4.72 12.401l-27.56 71.452h-29.52l54.91-141.723h29.53l54.92 141.723z"/><path d="m961.801 128.349c12.729 0 24.473 3.149 35.234 9.448 10.895 6.299 19.485 14.894 25.785 25.786 6.43 10.76 9.65 22.636 9.65 35.627 0 12.992-3.22 24.933-9.65 35.825-6.3 10.76-14.89 19.29-25.785 25.589-10.761 6.298-22.505 9.448-35.234 9.448h-56.099v-141.723zm0 114.559c7.873 0 15.156-1.968 21.849-5.905 6.692-3.937 11.941-9.251 15.747-15.944 3.933-6.692 5.903-13.975 5.903-21.849 0-7.873-1.97-15.156-5.903-21.848-3.806-6.693-9.055-12.008-15.747-15.944-6.693-3.937-13.976-5.905-21.849-5.905h-28.738v87.395z"/><path d="m831.358 128.349-38.777 141.723h-28.148l-19.486-72.83c-.525-2.1-1.116-4.33-1.772-6.692-.525-2.362-1.115-4.79-1.772-7.283-.524-2.362-1.049-4.724-1.574-7.087-.525-2.362-1.05-4.592-1.575-6.692h-.197c-.525 1.968-1.115 4.134-1.771 6.496-.525 2.23-1.05 4.527-1.575 6.889-.656 2.493-1.312 4.987-1.968 7.48-.525 2.362-1.116 4.658-1.772 6.889l-19.487 72.83h-28.147l-38.777-141.723h27.95l19.291 72.83c.524 1.968 1.049 4.068 1.574 6.299.525 2.23 1.05 4.527 1.575 6.889s1.05 4.658 1.575 6.889.918 4.396 1.181 6.496h.196c.525-2.362 1.116-4.855 1.772-7.48.656-2.756 1.312-5.577 1.968-8.464.525-1.837.985-3.609 1.378-5.315.525-1.837.984-3.608 1.378-5.314l19.487-72.83h28.148l19.683 72.83c.394 1.443.788 2.952 1.181 4.527.394 1.575.788 3.149 1.181 4.724 1.182 4.724 2.559 10.498 4.134 17.322h.197c.262-1.312.525-2.625.787-3.937.263-1.443.591-2.952.984-4.527 1.313-6.299 2.691-12.335 4.134-18.109l19.093-72.83z"/><path d="m595.906 271.253c-9.186 0-17.65-2.296-25.392-6.889-7.743-4.724-13.91-11.023-18.503-18.897-4.462-8.004-6.693-16.731-6.693-26.179s2.231-18.109 6.693-25.983c4.593-8.004 10.76-14.303 18.503-18.896 7.742-4.724 16.206-7.086 25.392-7.086h.196c9.186 0 17.584 2.362 25.196 7.086 7.742 4.593 13.844 10.892 18.305 18.896 4.593 8.005 6.89 16.666 6.89 25.983s-2.297 17.978-6.89 25.982c-4.461 8.005-10.563 14.37-18.305 19.094-7.612 4.593-16.01 6.889-25.196 6.889zm.196-27.164c4.2 0 8.071-1.115 11.614-3.346s6.299-5.183 8.267-8.857c2.1-3.806 3.149-8.005 3.149-12.598 0-4.462-1.049-8.595-3.149-12.401-2.1-3.805-4.921-6.823-8.464-9.054s-7.349-3.347-11.417-3.347h-.196c-4.331 0-8.268 1.116-11.811 3.347s-6.364 5.249-8.464 9.054c-2.099 3.806-3.149 7.939-3.149 12.401s1.05 8.595 3.149 12.401c2.1 3.805 4.921 6.823 8.464 9.054s7.48 3.346 11.811 3.346z"/><path d="m467.604 271.253c-12.991 0-24.998-3.215-36.021-9.645-10.891-6.561-19.618-15.353-26.179-26.376-6.43-11.023-9.645-23.03-9.645-36.022 0-12.991 3.215-24.998 9.645-36.021 6.561-11.023 15.288-19.749 26.179-26.179 11.023-6.561 23.03-9.842 36.021-9.842 11.548 0 21.849 2.625 30.904 7.874 9.054 5.117 16.272 11.679 21.652 19.683 5.511 8.005 8.989 16.206 10.432 24.605h-28.344c-1.181-4.724-3.543-8.989-7.086-12.795-3.543-3.805-7.743-6.758-12.598-8.857-4.855-2.231-9.842-3.346-14.96-3.346-8.136 0-15.615 2.034-22.439 6.102-6.693 4.067-12.073 9.513-16.141 16.337s-6.102 14.303-6.102 22.439 2.034 15.616 6.102 22.44 9.448 12.269 16.141 16.337c6.824 4.068 14.303 6.102 22.439 6.102s15.419-2.165 21.849-6.495c6.43-4.331 10.826-10.236 13.188-17.716h28.148c-1.443 9.055-4.921 17.519-10.432 25.392-5.512 7.743-12.86 14.041-22.046 18.897-9.055 4.724-19.29 7.086-30.707 7.086z"/></g></svg>