<svg fill="none" height="400" viewBox="0 0 400 400" width="400" xmlns="http://www.w3.org/2000/svg"><g fill="#fee7cf"><path d="m222.343 201.035c0 12.398-10.05 22.449-22.448 22.449-12.399 0-22.449-10.051-22.449-22.449s10.05-22.449 22.449-22.449c12.398 0 22.448 10.051 22.448 22.449z"/><path clip-rule="evenodd" d="m162.012 93-3.482 35.689-32.648-14.829-37.882 65.614 29.166 20.859-29.166 20.86 37.882 65.614 32.648-14.829 3.482 35.689h75.765l3.482-35.689 32.648 14.829 37.882-65.614-29.166-20.86 29.166-20.859-37.882-65.614-32.648 14.829-3.482-35.689h-37.882zm66.639 157.142 28.757-49.809-28.757-49.808h-57.513l-28.757 49.808 28.757 49.809z" fill-rule="evenodd"/></g></svg>